<svg width="64" height="60" viewBox="0 0 64 60" fill="none" xmlns="http://www.w3.org/2000/svg">
<path d="M4.82238 29.8386C4.82169 25.4587 5.97689 21.1558 8.17184 17.3624C10.3668 13.5691 13.5241 10.4189 17.3265 8.22868C21.1289 6.03843 25.4423 4.88526 29.8331 4.88509C34.2239 4.88492 38.5373 6.03776 42.3399 8.22771C42.8618 8.52374 43.48 8.6018 44.0595 8.44488C44.6389 8.28795 45.1326 7.90876 45.4329 7.39007C45.7331 6.87137 45.8154 6.25527 45.662 5.67623C45.5085 5.09718 45.1316 4.60219 44.6137 4.29928C38.9786 1.05393 32.4274 -0.245989 25.9763 0.601113C19.5251 1.44821 13.5344 4.395 8.93318 8.98446C4.332 13.5739 1.3775 19.5496 0.527876 25.9847C-0.321747 32.4198 0.980988 38.9548 4.23404 44.5761C7.4871 50.1974 12.5087 54.5909 18.52 57.0753C24.5314 59.5597 31.1965 59.996 37.4818 58.3167C43.7671 56.6374 49.3213 52.9363 53.2829 47.7873C57.2446 42.6383 59.3924 36.3293 59.3933 29.8386C59.3933 29.237 59.1537 28.6601 58.7273 28.2348C58.3009 27.8094 57.7225 27.5704 57.1195 27.5704C56.5164 27.5704 55.9381 27.8094 55.5117 28.2348C55.0853 28.6601 54.8457 29.237 54.8457 29.8386C54.8457 36.4556 52.2106 42.8017 47.52 47.4806C42.8294 52.1596 36.4675 54.7882 29.834 54.7882C23.2005 54.7882 16.8387 52.1596 12.1481 47.4806C7.45753 42.8017 4.82238 36.4556 4.82238 29.8386Z" fill="#00BAFF"/>
<path d="M63.2769 8.76321C63.4883 8.55233 63.656 8.30197 63.7704 8.02644C63.8849 7.75091 63.9437 7.4556 63.9437 7.15736C63.9437 6.85913 63.8849 6.56382 63.7704 6.28828C63.656 6.01275 63.4883 5.7624 63.2769 5.55152C63.0655 5.34063 62.8145 5.17335 62.5383 5.05922C62.2621 4.94509 61.9661 4.88635 61.6671 4.88635C61.3681 4.88635 61.0721 4.94509 60.7958 5.05922C60.5196 5.17335 60.2686 5.34063 60.0572 5.55152L29.8341 35.7042L17.8012 23.6967C17.5898 23.4858 17.3388 23.3185 17.0626 23.2044C16.7864 23.0903 16.4903 23.0315 16.1913 23.0315C15.8924 23.0315 15.5963 23.0903 15.3201 23.2044C15.0439 23.3185 14.7929 23.4858 14.5815 23.6967C14.3701 23.9076 14.2024 24.1579 14.088 24.4334C13.9736 24.709 13.9147 25.0043 13.9147 25.3025C13.9147 25.6008 13.9736 25.8961 14.088 26.1716C14.2024 26.4471 14.3701 26.6975 14.5815 26.9084L28.2242 40.5172C28.4354 40.7285 28.6863 40.896 28.9626 41.0104C29.2388 41.1247 29.535 41.1836 29.8341 41.1836C30.1331 41.1836 30.4293 41.1247 30.7055 41.0104C30.9818 40.896 31.2327 40.7285 31.4439 40.5172L63.2769 8.76321Z" fill="#00BAFF"/>
</svg>
